<?xml version="1.0" encoding="UTF-8"?>
<svg width="95px" height="95px" viewBox="0 0 95 95" version="1.1" xmlns="http://www.w3.org/2000/svg" xmlns:xlink="http://www.w3.org/1999/xlink">
    <!-- Generator: Sketch 58 (84663) - https://sketch.com -->
    <title>60SD logo</title>
    <desc>Created with Sketch.</desc>
    <defs>
        <polygon id="path-1" points="0 95 95 95 95 0 0 0"></polygon>
    </defs>
    <g id="60SD-" stroke="none" stroke-width="1" fill="none" fill-rule="evenodd">
        <g id="60SD_D_Home_01" transform="translate(-66.000000, -25.000000)">
            <g id="60SD-logo" transform="translate(66.000000, 25.000000)">
                <g>
                    <polygon id="Fill-1" fill="#E8D430" points="0 95 95 95 95 0 0 0"></polygon>
                    <g id="Group-43">
                        <path d="M18.8762185,22.073681 C18.7338944,21.8057458 18.5507556,21.5714125 18.32645,21.3705051 C18.1022324,21.1695097 17.8479315,21.0132875 17.563987,20.9017505 C17.2801306,20.7900375 16.9885333,20.734269 16.6895472,20.734269 C16.3902972,20.734269 16.0987,20.7900375 15.8147556,20.9017505 C15.5305472,21.0132875 15.2762463,21.1695097 15.0519407,21.3705051 C14.8277231,21.5714125 14.6484546,21.8057458 14.5137833,22.073681 C14.379112,22.3415282 14.3121722,22.6317181 14.3121722,22.9441625 L14.3121722,24.5069125 C14.3121722,24.8047551 14.3828944,25.0872042 14.5253065,25.3551394 C14.6672787,25.6229866 14.8503296,25.8574079 15.0746352,26.0583153 C15.2989407,26.2591347 15.5566722,26.4192273 15.8482694,26.5382412 C16.1398667,26.657519 16.4275935,26.716806 16.7119778,26.716806 C17.010788,26.716806 17.3023852,26.6609495 17.5866815,26.5493245 C17.8706259,26.4377875 18.1248389,26.2891301 18.3491444,26.1030005 C18.57345,25.9169588 18.7527185,25.6899264 18.8873019,25.4219912 C19.0219731,25.1542319 19.0892648,24.8639542 19.0892648,24.5515097 L19.0892648,22.9441625 C19.0892648,22.6317181 19.0181028,22.3415282 18.8762185,22.073681 M12.7792417,15.9571764 C12.9776861,15.3767088 13.2643574,14.863269 13.6393435,14.4168569 C14.0139778,13.9703569 14.4653157,13.6170097 14.9933574,13.3563755 C15.521487,13.096181 16.1203389,12.9658199 16.7900009,12.9658199 C17.5786769,12.9658199 18.300325,13.1594264 18.9553852,13.5461995 C19.6100935,13.9334125 20.1755194,14.4391116 20.6519269,15.0641764 C20.696612,15.1239032 20.7188667,15.198056 20.7188667,15.2875144 C20.7188667,15.3321116 20.6630102,15.4178755 20.5514731,15.5441903 C20.4398481,15.670769 20.3093991,15.8008662 20.1608296,15.9347458 C20.0119083,16.0687134 19.8667694,16.1841208 19.7255009,16.2807921 C19.5838806,16.3778153 19.4834269,16.425931 19.4241398,16.425931 C19.3348574,16.425931 19.2344037,16.3443014 19.1227787,16.1803384 C19.0111537,16.0167273 18.8622324,15.8381625 18.6763667,15.644556 C18.4900611,15.4513894 18.2483389,15.2727366 17.9508481,15.1087736 C17.6529176,14.9451625 17.2811861,14.863269 16.8346861,14.863269 C16.4475611,14.863269 16.0979963,14.9484171 15.7854639,15.1186255 C15.4729315,15.2887458 15.2051722,15.5071579 14.9819222,15.7736856 C14.7585843,16.0401255 14.5874083,16.3470282 14.4683944,16.6948338 C14.3491167,17.0429032 14.2898296,17.3941394 14.2898296,17.7492458 L14.2898296,19.2608894 C14.2898296,19.3355699 14.3156907,19.3914264 14.3680287,19.4282829 C14.4202787,19.4656671 14.483788,19.4842273 14.5587324,19.4842273 C14.6180194,19.4842273 14.6630565,19.4769264 14.6930519,19.4617968 C14.9915981,19.2981856 15.312487,19.164306 15.6560704,19.0600699 C15.9993019,18.9560977 16.3428852,18.9037597 16.6863806,18.9037597 C17.2686074,18.9037597 17.8211028,18.9971764 18.3436028,19.1834819 C18.8660148,19.3701394 19.321575,19.6386023 19.7098435,19.9892227 C20.0980241,20.3397551 20.4077417,20.7611856 20.6393481,21.2532505 C20.8709546,21.7454032 20.9868019,22.2971949 20.9868019,22.9090653 L20.9868019,24.788306 C20.9868019,25.3700931 20.8640056,25.8922412 20.618413,26.3547505 C20.3729083,26.8172597 20.0492046,27.2124773 19.6473898,27.5406671 C19.245575,27.8688569 18.7879917,28.1185838 18.2745519,28.2902875 C17.761112,28.4615514 17.2365009,28.5473153 16.7007185,28.5473153 C16.1649361,28.5473153 15.640325,28.4503801 15.1269731,28.2570375 C14.6135333,28.0639588 14.1632509,27.7921532 13.7763898,27.4423245 C13.3892648,27.0927597 13.0767324,26.6798616 12.8388806,26.2033662 C12.6005889,25.7273106 12.4817509,25.2064819 12.4817509,24.6407921 L12.4817509,17.7653431 C12.4817509,17.1402782 12.5807972,16.5374681 12.7792417,15.9571764" id="Fill-2" fill="#000100"></path>
                        <path d="M26.7236935,23.4639093 C26.7236935,23.8946639 26.7756796,24.3069463 26.8799157,24.7004046 C26.983888,25.0942148 27.1512815,25.4394694 27.3821843,25.7366963 C27.6127352,26.0338352 27.9103139,26.2714231 28.2751843,26.4495481 C28.6396148,26.6278491 29.0749435,26.7167796 29.5809944,26.7167796 C30.1314667,26.7167796 30.58905,26.6278491 30.9539204,26.4495481 C31.3183509,26.2714231 31.6124111,26.0338352 31.8356611,25.7366963 C32.0588231,25.4394694 32.2151333,25.0980852 32.3044157,24.7116639 C32.3936981,24.3255065 32.4383833,23.9169185 32.4383833,23.4862519 L32.4383833,18.1607981 C32.4383833,17.7303954 32.3714435,17.318113 32.2374759,16.9243907 C32.1035083,16.5309324 31.9137722,16.1855898 31.6682676,15.888363 C31.422675,15.5912241 31.1213139,15.3537241 30.7641843,15.1755111 C30.4069667,14.9972981 30.0125407,14.9079278 29.5809944,14.9079278 C29.1345824,14.9079278 28.7361981,14.9972981 28.3867213,15.1755111 C28.0368926,15.3537241 27.7394019,15.5912241 27.4938093,15.888363 C27.2483046,16.1855898 27.0585685,16.5309324 26.9246009,16.9243907 C26.7906333,17.318113 26.7236935,17.7303954 26.7236935,18.1607981 L26.7236935,23.4639093 Z M34.3804296,23.7479417 C34.3804296,24.4325574 34.2723231,25.0687056 34.0568139,25.6564741 C33.8408648,26.2445065 33.52455,26.7540759 33.1080454,27.1856222 C32.6911889,27.6174324 32.185138,27.9522194 31.5900685,28.1901593 C30.9946472,28.4280111 30.3249852,28.5472889 29.5809944,28.5472889 C28.8366519,28.5472889 28.1669898,28.4244926 27.5720083,28.178988 C26.976587,27.9333954 26.4743185,27.5912194 26.0651148,27.1521083 C25.6556472,26.7132611 25.3396843,26.2034278 25.1164343,25.6229602 C24.8931843,25.0425806 24.7815593,24.4175157 24.7815593,23.7479417 L24.7815593,17.9215389 C24.7815593,17.2517889 24.9078741,16.626812 25.1610315,16.0464324 C25.413925,15.4660528 25.7561009,14.9602657 26.1879111,14.5283676 C26.6193694,14.0969972 27.1255083,13.7548213 27.7059759,13.5015759 C28.2862676,13.2486824 28.9113324,13.1221037 29.5809944,13.1221037 C30.2357028,13.1221037 30.8569852,13.2486824 31.4450176,13.5015759 C32.0326981,13.7548213 32.5422676,14.0969972 32.9741657,14.5283676 C33.4055361,14.9602657 33.7478,15.4660528 34.0009574,16.0464324 C34.2538509,16.626812 34.3804296,17.2517889 34.3804296,17.9215389 L34.3804296,23.7479417 Z" id="Fill-4" fill="#000100"></path>
                        <path d="M16.5223032,54.7600407 C15.9715671,54.7600407 15.446956,54.6891426 14.9484699,54.5478741 C14.4497199,54.4063417 14.0109606,54.1907444 13.6314884,53.9005546 C13.2519282,53.6103648 12.9467847,53.2457583 12.7161458,52.8067352 C12.485331,52.3679759 12.3701875,51.8506657 12.3701875,51.2552444 C12.3701875,51.0619898 12.4741597,50.9650546 12.6827199,50.9650546 L13.9774468,50.942712 C14.0963727,50.942712 14.1745718,50.9650546 14.2118681,51.0097398 C14.2488125,51.054337 14.2823264,51.1290176 14.3123218,51.2329019 C14.4312477,51.8433648 14.6617986,52.2709528 15.0043264,52.5165454 C15.3465023,52.76205 15.8449884,52.8849343 16.4999606,52.8849343 C17.154669,52.8849343 17.7054051,52.7434898 18.1519051,52.4606889 C18.5983171,52.1781519 18.8215671,51.6870546 18.8215671,50.9873093 C18.8215671,50.719462 18.7580579,50.4331426 18.631831,50.1279991 C18.5051644,49.8231194 18.3377708,49.5664435 18.1295625,49.3578833 L14.1783542,45.4958694 C13.6873449,45.0198139 13.2889606,44.5175454 12.984081,43.9890639 C12.6789375,43.4610222 12.5264977,42.832175 12.5264977,42.1027861 C12.5264977,41.5374481 12.6303819,41.0351796 12.8389421,40.5959806 C13.0472384,40.1572213 13.3262569,39.7812676 13.6760856,39.4687352 C14.0256505,39.1562028 14.4385486,38.9183509 14.915044,38.7544759 C15.3911875,38.5908648 15.8972384,38.5088833 16.4330208,38.5088833 C16.9537616,38.5088833 17.4521597,38.5869944 17.9286551,38.7432167 C18.4047106,38.8994389 18.8288681,39.1304296 19.2010394,39.4352213 C19.5729468,39.7403648 19.8707014,40.1087537 20.0939514,40.540212 C20.3172014,40.9720222 20.4288264,41.4631194 20.4288264,42.0135037 C20.4288264,42.2071102 20.3172014,42.3036935 20.0939514,42.3036935 L18.9777894,42.3036935 C18.9031968,42.3036935 18.8288681,42.274138 18.7546273,42.2144111 C18.6799468,42.155212 18.6279606,42.0881843 18.5983171,42.0135037 C18.4790394,41.5224944 18.2523588,41.1095083 17.9174838,40.7746333 C17.5826968,40.4398463 17.1323264,40.2723648 16.5669005,40.2723648 C16.0012106,40.2723648 15.5139838,40.4138972 15.1047801,40.6965222 C14.6953125,40.9794111 14.4908866,41.4331241 14.4908866,42.0581889 C14.4908866,42.4007167 14.5689977,42.7166796 14.7253079,43.0069574 C14.8815301,43.2971472 15.0712662,43.5614759 15.2945162,43.7994157 L19.4912292,48.0407259 C20.2948588,48.8443556 20.6966736,49.826638 20.6966736,50.9873093 C20.6966736,52.3121194 20.3172014,53.2719713 19.5582569,53.8670407 C18.7992245,54.4620222 17.7870347,54.7600407 16.5223032,54.7600407" id="Fill-6" fill="#000100"></path>
                        <path d="M31.5456296,39.2454412 L31.5456296,40.2499782 C31.5456296,40.4882699 31.4263519,40.6071958 31.188412,40.6071958 L26.6568241,40.6071958 C26.433662,40.6071958 26.322037,40.7188208 26.322037,40.9420708 L26.322037,45.5628532 C26.322037,45.6968208 26.3813241,45.7638486 26.5006019,45.7638486 L29.7151204,45.7638486 C29.9529722,45.7638486 30.0646852,45.8831264 30.0499954,46.1209782 L30.0499954,47.1478579 C30.0499954,47.3710199 29.9383704,47.4827329 29.7151204,47.4827329 L26.6344815,47.4827329 C26.4113194,47.4827329 26.2996944,47.5943579 26.2996944,47.8176079 L26.322037,52.5054181 C26.322037,52.7285801 26.433662,52.8402051 26.6568241,52.8402051 L31.188412,52.8402051 C31.4263519,52.8402051 31.5456296,52.9518301 31.5456296,53.1750801 L31.5456296,54.0455616 C31.5456296,54.2838532 31.4263519,54.4027792 31.188412,54.4027792 L24.8486574,54.4027792 C24.6104537,54.4027792 24.4915278,54.2838532 24.4915278,54.0455616 L24.4915278,39.2454412 C24.4915278,39.0222792 24.6104537,38.9105662 24.8486574,38.9105662 L31.188412,38.9105662 C31.4263519,38.9105662 31.5456296,39.0222792 31.5456296,39.2454412" id="Fill-8" fill="#000100"></path>
                        <path d="M43.8901231,42.5046185 C43.8901231,42.698225 43.7784981,42.7948083 43.5552481,42.7948083 L42.2829519,42.7948083 C42.0596139,42.7948083 41.9480769,42.698225 41.9480769,42.5046185 C41.9480769,42.1474889 41.8810491,41.8349565 41.7469935,41.5671093 C41.6132019,41.2991741 41.4380676,41.0724935 41.2224704,40.886188 C41.0066093,40.7003222 40.7572343,40.5625722 40.4746093,40.4732898 C40.1918083,40.3839194 39.8942296,40.3392343 39.5817852,40.3392343 C39.2839426,40.3392343 38.9935769,40.3951787 38.7111278,40.5067157 C38.4282389,40.6183407 38.1755213,40.7746509 37.9521833,40.9755583 C37.7289333,41.1763778 37.5502806,41.4072806 37.4164009,41.667475 C37.2824333,41.9280213 37.2154935,42.2071278 37.2154935,42.5046185 L37.2154935,50.8980444 C37.2154935,51.195975 37.2824333,51.4711231 37.4164009,51.7240167 C37.5502806,51.977262 37.7289333,52.1966417 37.9521833,52.3825954 C38.1755213,52.568813 38.4282389,52.7139519 38.7111278,52.8179241 C38.9935769,52.9221602 39.2839426,52.9741463 39.5817852,52.9741463 C40.3407296,52.9741463 40.9246278,52.7697204 41.3340074,52.3601648 C41.7432991,51.951137 41.9480769,51.4338269 41.9480769,50.808762 C41.9480769,50.6155954 42.0596139,50.5185722 42.2829519,50.5185722 L43.5552481,50.5185722 C43.7784981,50.5185722 43.8901231,50.6155954 43.8901231,50.808762 C43.8901231,51.3891417 43.7968824,51.9214935 43.6111046,52.40485 C43.4247111,52.8886463 43.1496509,53.3055028 42.7851324,53.6549796 C42.420262,54.0048963 41.9703315,54.2765259 41.4345491,54.4698685 C40.8987667,54.6629472 40.2810028,54.7600583 39.5817852,54.7600583 C39.0013176,54.7600583 38.4544519,54.6741185 37.941012,54.5032065 C37.4276602,54.3322944 36.9773778,54.0790491 36.5905167,53.744262 C36.2033037,53.409387 35.8984241,53.0041417 35.675262,52.5276463 C35.452012,52.0515907 35.340387,51.5085074 35.340387,50.8980444 L35.340387,42.5046185 C35.340387,41.8796417 35.459313,41.3215167 35.6975167,40.8304194 C35.9354565,40.3392343 36.2517713,39.9189472 36.6462852,39.5691185 C37.0403593,39.2197296 37.494512,38.955225 38.0080398,38.7766602 C38.5214796,38.5980954 39.0460028,38.5089009 39.5817852,38.5089009 C40.1620769,38.5089009 40.7125491,38.5907944 41.2336417,38.7544056 C41.7544704,38.9183685 42.2119657,39.1673037 42.6064796,39.5021787 C43.0006417,39.8369657 43.3131741,40.2538222 43.5441648,40.7523083 C43.7747157,41.2510583 43.8901231,41.8349565 43.8901231,42.5046185" id="Fill-10" fill="#000100"></path>
                        <path d="M54.1369111,41.6762801 C54.0035593,41.4090486 53.8256981,41.1750671 53.6035917,40.9744236 C53.3813093,40.7738681 53.1296472,40.6179977 52.8485176,40.5063727 C52.5668602,40.3951875 52.2780778,40.3392431 51.9819944,40.3392431 C51.6854713,40.3392431 51.3966889,40.3951875 51.1154713,40.5063727 C50.8341657,40.6179977 50.5822398,40.7738681 50.3600454,40.9744236 C50.1378509,41.1750671 49.9600778,41.4090486 49.8268139,41.6762801 C49.693462,41.9437755 49.626962,42.2336134 49.626962,42.5454421 L49.626962,51.0356273 C49.626962,51.347456 49.6969806,51.6222523 49.8378972,51.8600162 C49.97855,52.097956 50.1598417,52.3020301 50.3820361,52.4730301 C50.6043185,52.6437662 50.8560685,52.770081 51.13755,52.8517106 C51.4191194,52.9333403 51.700513,52.9741551 51.9819944,52.9741551 C52.2631241,52.9741551 52.5446056,52.9333403 52.826175,52.8517106 C53.1075685,52.770081 53.3594944,52.6472847 53.5816009,52.4841134 C53.8037954,52.3208542 53.9849991,52.1164282 54.1260917,51.8712755 C54.2666565,51.6260347 54.3370269,51.347456 54.3370269,51.0356273 L54.3370269,42.5454421 C54.3370269,42.2336134 54.270175,41.9437755 54.1369111,41.6762801 L54.1369111,41.6762801 Z M56.1676241,51.0321088 C56.1676241,51.6124005 56.0520407,52.1334931 55.8214898,52.5946829 C55.590587,53.0561366 55.281925,53.4467801 54.8950639,53.7666134 C54.5080269,54.0867986 54.0654852,54.3323032 53.5669991,54.5032153 C53.0682491,54.6741273 52.54355,54.7600671 51.9932537,54.7600671 C51.4573833,54.7600671 50.9362907,54.6706088 50.4305037,54.4921319 C49.9244528,54.3135671 49.4779528,54.064456 49.0911796,53.7442708 C48.7038787,53.4244375 48.3915222,53.033794 48.1535824,52.5723403 C47.9153787,52.1111505 47.7964528,51.5977986 47.7964528,51.0321088 L47.7964528,42.5269699 C47.7964528,41.961544 47.9115963,41.4370208 48.142587,40.9532245 C48.37305,40.4697801 48.6855824,40.0455347 49.0800963,39.6808403 C49.4741704,39.3163218 49.9244528,39.0299144 50.4305037,38.8213542 C50.9362907,38.6130579 51.4573833,38.5089097 51.9932537,38.5089097 C52.5585917,38.5089097 53.0905037,38.6130579 53.5892537,38.8213542 C54.0876519,39.0299144 54.5303694,39.3124514 54.9174944,39.669581 C55.3043556,40.0267986 55.6094991,40.450956 55.8326611,40.9420532 C56.0559111,41.4330625 56.1676241,41.961544 56.1676241,42.5269699 L56.1676241,51.0321088 Z" id="Fill-12" fill="#000100"></path>
                        <path d="M63.2437343,44.3351806 C63.1989611,44.2161667 63.1021139,44.1565278 62.9534565,44.1565278 C62.7302065,44.1565278 62.6186694,44.2758056 62.6186694,44.5137454 L62.6186694,54.045588 C62.6186694,54.2838796 62.5070444,54.4028056 62.2837944,54.4028056 L61.2123176,54.4028056 C60.9740259,54.4028056 60.8551,54.2838796 60.8551,54.045588 L60.8551,39.2454676 C60.8551,39.0223056 60.966725,38.9105926 61.189887,38.9105926 L62.1052296,38.9105926 C62.2537991,38.9105926 62.3582111,38.9852731 62.417762,39.1339306 L67.1501694,48.4648657 C67.1949426,48.5541481 67.284225,48.5987454 67.4181046,48.5987454 C67.6412667,48.5987454 67.7529796,48.4872963 67.7529796,48.2639583 L67.7529796,39.2454676 C67.7529796,39.0076157 67.8719056,38.888338 68.1101093,38.888338 L69.1592435,38.888338 C69.3971833,38.888338 69.5164611,39.0076157 69.5164611,39.2454676 L69.5164611,54.0679306 C69.5164611,54.2911806 69.3971833,54.4028056 69.1592435,54.4028056 L68.2665074,54.4028056 C68.1470537,54.4028056 68.0431694,54.3284769 67.953887,54.1796435 L63.2437343,44.3351806 Z" id="Fill-14" fill="#000100"></path>
                        <path d="M76.5926329,52.7509755 L78.0661005,52.7509755 C78.9143273,52.7509755 79.6174153,52.4906931 80.1755403,51.9696005 C80.7335773,51.4488597 81.0126838,50.7568551 81.0126838,49.8935866 L81.0126838,43.776994 C81.0126838,43.3606653 80.9529569,42.9587625 80.834119,42.5716375 C80.7146653,42.1846884 80.5361884,41.846031 80.2982486,41.5558412 C80.0600449,41.2656514 79.7549014,41.0313181 79.382994,40.8527532 C79.0109106,40.6741005 78.5644106,40.5848181 78.0436699,40.5848181 L76.5926329,40.5848181 C76.3694708,40.5848181 76.2577579,40.7040958 76.2577579,40.9420356 L76.2577579,52.3936699 C76.2577579,52.6319616 76.3694708,52.7509755 76.5926329,52.7509755 M74.4273366,54.0456144 L74.4273366,39.245406 C74.4273366,39.022244 74.5461745,38.910619 74.7844662,38.910619 L78.2891745,38.910619 C78.9884801,38.910619 79.6285866,39.0371977 80.2088782,39.2900912 C80.7893458,39.5433366 81.2839616,39.8856005 81.6934292,40.3170588 C82.1025449,40.748781 82.4189477,41.2622208 82.6421097,41.8572903 C82.8655356,42.4527116 82.9769847,43.100031 82.9769847,43.7993366 L82.9769847,49.9605264 C82.9769847,50.6601838 82.8615773,51.2853366 82.6309384,51.8357208 C82.4000356,52.386369 82.0765079,52.8514292 81.6599153,53.2308134 C81.2431468,53.6103736 80.7481792,53.9004755 80.1755403,54.1015588 C79.6024616,54.3024662 78.9735264,54.402744 78.2891745,54.402744 L74.7844662,54.402744 C74.5461745,54.402744 74.4273366,54.283906 74.4273366,54.0456144" id="Fill-16" fill="#000100"></path>
                        <path d="M14.6464315,78.8321699 L16.1198111,78.8321699 C16.968038,78.8321699 17.6712139,78.5718875 18.2292509,78.0507949 C18.7873759,77.5301421 19.0663944,76.8380495 19.0663944,75.974781 L19.0663944,69.8581884 C19.0663944,69.4418597 19.0067556,69.0400449 18.8878296,68.6528319 C18.7685519,68.2659708 18.5898991,67.9273134 18.3520472,67.6370356 C18.1138435,67.3469338 17.808612,67.1126005 17.4367926,66.9339477 C17.0647093,66.7553829 16.6182093,66.6660125 16.0974685,66.6660125 L14.6464315,66.6660125 C14.4231815,66.6660125 14.3115565,66.7853782 14.3115565,67.0233181 L14.3115565,78.4749523 C14.3115565,78.713156 14.4231815,78.8321699 14.6464315,78.8321699 M12.4811352,80.1268088 L12.4811352,65.3266884 C12.4811352,65.1035264 12.5999731,64.9918134 12.8382648,64.9918134 L16.3429731,64.9918134 C17.0423667,64.9918134 17.6823852,65.1184801 18.2627648,65.3713736 C18.8431444,65.624531 19.3377602,65.9667949 19.7472278,66.3982532 C20.1563435,66.8300634 20.4727463,67.3434153 20.6959963,67.9385727 C20.9192463,68.533906 21.0308713,69.1812255 21.0308713,69.880619 L21.0308713,76.0417208 C21.0308713,76.7414662 20.9153759,77.366531 20.684825,77.9169153 C20.4538343,78.4676514 20.1302185,78.9326236 19.7137139,79.3120958 C19.2969454,79.691656 18.8019778,79.9817579 18.2292509,80.1827532 C17.6561722,80.3836606 17.027325,80.4840264 16.3429731,80.4840264 L12.8382648,80.4840264 C12.5999731,80.4840264 12.4811352,80.3651005 12.4811352,80.1268088" id="Fill-18" fill="#000100"></path>
                        <path d="M30.9428194,67.7575097 C30.8095556,67.4902782 30.6316944,67.2562968 30.4095,67.0556532 C30.1873056,66.8550977 29.9354676,66.6993153 29.6544259,66.5876023 C29.3728565,66.4764171 29.0840741,66.4205606 28.7879028,66.4205606 C28.4914676,66.4205606 28.2026852,66.4764171 27.9215556,66.5876023 C27.6400741,66.6993153 27.3882361,66.8550977 27.1660417,67.0556532 C26.9438472,67.2562968 26.7659861,67.4902782 26.6327222,67.7575097 C26.4994583,68.0250051 26.4328704,68.3148431 26.4328704,68.6266718 L26.4328704,77.116769 C26.4328704,77.4285977 26.5029769,77.703394 26.6438935,77.9412458 C26.7844583,78.1792736 26.965838,78.3832597 27.1880324,78.5541718 C27.4102269,78.7250838 27.6620648,78.8513106 27.9435463,78.9329403 C28.2250278,79.0145699 28.5065093,79.0552968 28.7879028,79.0552968 C29.0691204,79.0552968 29.3505139,79.0145699 29.6320833,78.9329403 C29.9134769,78.8513106 30.1654028,78.7285144 30.3875093,78.5653431 C30.6097037,78.4020838 30.7910833,78.1976579 30.932,77.9525051 C31.0725648,77.7072644 31.1430231,77.4285977 31.1430231,77.116769 L31.1430231,68.6266718 C31.1430231,68.3148431 31.0760833,68.0250051 30.9428194,67.7575097 L30.9428194,67.7575097 Z M32.9735324,77.1132505 C32.9735324,77.6936301 32.858037,78.2148106 32.6274861,78.6759125 C32.3965833,79.1373662 32.0879213,79.5280097 31.7011481,79.8478431 C31.3139352,80.1681162 30.8713056,80.4135329 30.3729074,80.5844449 C29.8741574,80.7554449 29.3495463,80.8412088 28.799162,80.8412088 C28.2633796,80.8412088 27.742287,80.7519264 27.2365,80.5732736 C26.7303611,80.3947968 26.2839491,80.1456856 25.897088,79.8254125 C25.509963,79.5057551 25.1974306,79.1149356 24.9594907,78.6534819 C24.721287,78.1923801 24.6023611,77.6790282 24.6023611,77.1132505 L24.6023611,68.6082875 C24.6023611,68.0427736 24.7175046,67.5182505 24.9484074,67.0343662 C25.1789583,66.5510097 25.4914907,66.1267644 25.8860046,65.7619819 C26.2800787,65.3975514 26.7303611,65.111144 27.2365,64.9025838 C27.742287,64.6943755 28.2633796,64.5900514 28.799162,64.5900514 C29.3645,64.5900514 29.896412,64.6943755 30.395162,64.9025838 C30.8935602,65.111144 31.3362778,65.393681 31.7234028,65.7508106 C32.1102639,66.1080282 32.4154074,66.5320977 32.6386574,67.0232829 C32.8619074,67.5142921 32.9735324,68.0427736 32.9735324,68.6082875 L32.9735324,77.1132505 Z" id="Fill-20" fill="#000100"></path>
                        <path d="M45.0946352,68.5858569 C45.0946352,68.7794634 44.9830981,68.8761347 44.7597602,68.8761347 L43.4874639,68.8761347 C43.2641259,68.8761347 43.1525889,68.7794634 43.1525889,68.5858569 C43.1525889,68.2287273 43.0855611,67.9161949 42.9515935,67.6483477 C42.8177139,67.3804125 42.6426676,67.1537319 42.4269824,66.9674264 C42.2111213,66.7814727 41.9618343,66.6438106 41.6791213,66.5545282 C41.3964083,66.4651579 41.0988296,66.4205606 40.7863852,66.4205606 C40.4883667,66.4205606 40.1981769,66.4764171 39.9156398,66.5879542 C39.6328389,66.6995792 39.3799454,66.8558894 39.1566954,67.0567968 C38.9335333,67.2576162 38.7548806,67.488519 38.6210009,67.7487134 C38.4869454,68.0092597 38.4200935,68.2883662 38.4200935,68.5858569 L38.4200935,76.9792829 C38.4200935,77.2773014 38.4869454,77.5524495 38.6210009,77.8053431 C38.7548806,78.0584125 38.9335333,78.2778801 39.1566954,78.4638338 C39.3799454,78.6500514 39.6328389,78.7951903 39.9156398,78.8990745 C40.1981769,79.0034866 40.4883667,79.0552968 40.7863852,79.0552968 C41.5453296,79.0552968 42.1292278,78.8509588 42.5386074,78.4414912 C42.9478111,78.0324634 43.1525889,77.5150653 43.1525889,76.8900005 C43.1525889,76.6968338 43.2641259,76.5997227 43.4874639,76.5997227 L44.7597602,76.5997227 C44.9830981,76.5997227 45.0946352,76.6968338 45.0946352,76.8900005 C45.0946352,77.4704681 45.0014824,78.0027319 44.8157046,78.4860884 C44.6293111,78.9699727 44.3542509,79.3867412 43.9896444,79.7362181 C43.624862,80.0861347 43.1748435,80.3577644 42.6391491,80.551019 C42.1033667,80.7442736 41.4856028,80.8412088 40.7863852,80.8412088 C40.2059176,80.8412088 39.6589639,80.7554449 39.1455241,80.5844449 C38.6321722,80.4135329 38.1818019,80.1602875 37.7950287,79.8254125 C37.4078157,79.4906255 37.1030241,79.0853801 36.8797741,78.6088847 C36.6565241,78.1328292 36.5448991,77.5896579 36.5448991,76.9792829 L36.5448991,68.5858569 C36.5448991,67.9608801 36.663913,67.4027551 36.9020287,66.9116579 C37.1399685,66.4205606 37.4563713,66.0001856 37.8508852,65.6504449 C38.2448713,65.3008801 38.699112,65.0364634 39.2125519,64.8578986 C39.7259037,64.6794218 40.2505148,64.5900514 40.7863852,64.5900514 C41.3666769,64.5900514 41.9170611,64.6720329 42.4382417,64.835644 C42.9589824,64.999519 43.4165657,65.2485421 43.8110796,65.5833292 C44.2052417,65.9182042 44.5176861,66.3350606 44.7485889,66.8334588 C44.9791398,67.3322968 45.0946352,67.9161949 45.0946352,68.5858569" id="Fill-22" fill="#000100"></path>
                        <path d="M51.8136245,80.8412264 C51.2628005,80.8412264 50.7382773,80.7704162 50.2398792,80.6290597 C49.7410412,80.4875273 49.302194,80.2719301 48.9228977,79.9817403 C48.5432495,79.6916384 48.238194,79.3270319 48.0075551,78.8879208 C47.7766523,78.4492495 47.6616847,77.9319394 47.6616847,77.3365181 C47.6616847,77.1432634 47.765481,77.0462403 47.9741292,77.0462403 L49.268856,77.0239856 C49.3878699,77.0239856 49.465981,77.0462403 49.5032773,77.0909255 C49.5401338,77.1356106 49.5736477,77.2102912 49.603731,77.3140875 C49.7226569,77.9245505 49.9532079,78.3521384 50.2956477,78.597731 C50.6379116,78.8433236 51.1363097,78.9661199 51.7912819,78.9661199 C52.4459023,78.9661199 52.9968144,78.8247634 53.4432264,78.5419625 C53.8897264,78.2593375 54.1130644,77.7682403 54.1130644,77.0684949 C54.1130644,76.8007356 54.0494671,76.5144162 53.9231523,76.2091847 C53.7965736,75.9043931 53.6291801,75.6476292 53.4208838,75.439069 L49.4696755,71.5771431 C48.9786662,71.1010875 48.5803699,70.598819 48.2754023,70.0703375 C47.9703468,69.5422958 47.817819,68.9133606 47.817819,68.1839718 C47.817819,67.6187218 47.9218792,67.1164532 48.1302634,66.6772542 C48.3384718,66.2384069 48.6175782,65.8624532 48.9674069,65.5500088 C49.3169718,65.2373884 49.7298699,64.9995366 50.2064532,64.8356616 C50.6825088,64.6720505 51.1887356,64.590069 51.7242542,64.590069 C52.2450829,64.590069 52.743481,64.6682681 53.2199764,64.8244023 C53.6960319,64.9806245 54.1201894,65.2116153 54.4923606,65.5164949 C54.864356,65.8216384 55.1620227,66.1899394 55.3853606,66.6214856 C55.6086106,67.0532958 55.7202356,67.5443051 55.7202356,68.0947773 C55.7202356,68.2883838 55.6086106,68.3849671 55.3853606,68.3849671 L54.2691986,68.3849671 C54.194606,68.3849671 54.1201894,68.3554116 54.0459486,68.2956847 C53.9712681,68.2363977 53.9193699,68.1693699 53.8897264,68.0947773 C53.7703606,67.6037681 53.5436801,67.190694 53.2088051,66.8559069 C52.8740181,66.5210319 52.4237356,66.3536384 51.8583977,66.3536384 C51.2925319,66.3536384 50.8053051,66.4951708 50.3961014,66.7777079 C49.9866338,67.0605968 49.7822079,67.5143097 49.7822079,68.1393745 C49.7822079,68.4819903 49.8604069,68.7979532 50.0166292,69.0881431 C50.1730273,69.3784208 50.3626755,69.6426616 50.5860134,69.8806894 L54.7827264,74.1219116 C55.5861801,74.9255412 55.9879949,75.9078236 55.9879949,77.0684949 C55.9879949,78.3933051 55.6086106,79.3532449 54.8495782,79.9483144 C54.0906338,80.5432958 53.078356,80.8412264 51.8136245,80.8412264" id="Fill-24" fill="#000100"></path>
                        <mask id="mask-2" fill="white">
                            <use xlink:href="#path-1"></use>
                        </mask>
                        <g id="Clip-27"></g>
                        <polygon id="Fill-26" fill="#000100" mask="url(#mask-2)" points="9.93981481 60.6064815 84.9722222 60.6064815 84.9722222 58.9351852 9.93981481 58.9351852"></polygon>
                        <polygon id="Fill-28" fill="#000100" mask="url(#mask-2)" points="9.93981481 35.1851852 84.9722222 35.1851852 84.9722222 33.25 9.93981481 33.25"></polygon>
                        <path d="M18.8762185,22.073681 C18.7338944,21.8057458 18.5507556,21.5714125 18.32645,21.3705051 C18.1022324,21.1695097 17.8479315,21.0132875 17.563987,20.9017505 C17.2801306,20.7900375 16.9885333,20.734269 16.6895472,20.734269 C16.3902972,20.734269 16.0987,20.7900375 15.8147556,20.9017505 C15.5305472,21.0132875 15.2762463,21.1695097 15.0519407,21.3705051 C14.8277231,21.5714125 14.6484546,21.8057458 14.5137833,22.073681 C14.379112,22.3415282 14.3121722,22.6317181 14.3121722,22.9441625 L14.3121722,24.5069125 C14.3121722,24.8047551 14.3828944,25.0872042 14.5253065,25.3551394 C14.6672787,25.6229866 14.8503296,25.8574079 15.0746352,26.0583153 C15.2989407,26.2591347 15.5566722,26.4192273 15.8482694,26.5382412 C16.1398667,26.657519 16.4275935,26.716806 16.7119778,26.716806 C17.010788,26.716806 17.3023852,26.6609495 17.5866815,26.5493245 C17.8706259,26.4377875 18.1248389,26.2891301 18.3491444,26.1030005 C18.57345,25.9169588 18.7527185,25.6899264 18.8873019,25.4219912 C19.0219731,25.1542319 19.0892648,24.8639542 19.0892648,24.5515097 L19.0892648,22.9441625 C19.0892648,22.6317181 19.0181028,22.3415282 18.8762185,22.073681 M12.7792417,15.9571764 C12.9776861,15.3767088 13.2643574,14.863269 13.6393435,14.4168569 C14.0139778,13.9703569 14.4653157,13.6170097 14.9933574,13.3563755 C15.521487,13.096181 16.1203389,12.9658199 16.7900009,12.9658199 C17.5786769,12.9658199 18.300325,13.1594264 18.9553852,13.5461995 C19.6100935,13.9334125 20.1755194,14.4391116 20.6519269,15.0641764 C20.696612,15.1239032 20.7188667,15.198056 20.7188667,15.2875144 C20.7188667,15.3321116 20.6630102,15.4178755 20.5514731,15.5441903 C20.4398481,15.670769 20.3093991,15.8008662 20.1608296,15.9347458 C20.0119083,16.0687134 19.8667694,16.1841208 19.7255009,16.2807921 C19.5838806,16.3778153 19.4834269,16.425931 19.4241398,16.425931 C19.3348574,16.425931 19.2344037,16.3443014 19.1227787,16.1803384 C19.0111537,16.0167273 18.8622324,15.8381625 18.6763667,15.644556 C18.4900611,15.4513894 18.2483389,15.2727366 17.9508481,15.1087736 C17.6529176,14.9451625 17.2811861,14.863269 16.8346861,14.863269 C16.4475611,14.863269 16.0979963,14.9484171 15.7854639,15.1186255 C15.4729315,15.2887458 15.2051722,15.5071579 14.9819222,15.7736856 C14.7585843,16.0401255 14.5874083,16.3470282 14.4683944,16.6948338 C14.3491167,17.0429032 14.2898296,17.3941394 14.2898296,17.7492458 L14.2898296,19.2608894 C14.2898296,19.3355699 14.3156907,19.3914264 14.3680287,19.4282829 C14.4202787,19.4656671 14.483788,19.4842273 14.5587324,19.4842273 C14.6180194,19.4842273 14.6630565,19.4769264 14.6930519,19.4617968 C14.9915981,19.2981856 15.312487,19.164306 15.6560704,19.0600699 C15.9993019,18.9560977 16.3428852,18.9037597 16.6863806,18.9037597 C17.2686074,18.9037597 17.8211028,18.9971764 18.3436028,19.1834819 C18.8660148,19.3701394 19.321575,19.6386023 19.7098435,19.9892227 C20.0980241,20.3397551 20.4077417,20.7611856 20.6393481,21.2532505 C20.8709546,21.7454032 20.9868019,22.2971949 20.9868019,22.9090653 L20.9868019,24.788306 C20.9868019,25.3700931 20.8640056,25.8922412 20.618413,26.3547505 C20.3729083,26.8172597 20.0492046,27.2124773 19.6473898,27.5406671 C19.245575,27.8688569 18.7879917,28.1185838 18.2745519,28.2902875 C17.761112,28.4615514 17.2365009,28.5473153 16.7007185,28.5473153 C16.1649361,28.5473153 15.640325,28.4503801 15.1269731,28.2570375 C14.6135333,28.0639588 14.1632509,27.7921532 13.7763898,27.4423245 C13.3892648,27.0927597 13.0767324,26.6798616 12.8388806,26.2033662 C12.6005889,25.7273106 12.4817509,25.2064819 12.4817509,24.6407921 L12.4817509,17.7653431 C12.4817509,17.1402782 12.5807972,16.5374681 12.7792417,15.9571764" id="Fill-29" fill="#000100" mask="url(#mask-2)"></path>
                        <path d="M26.7236935,23.4639093 C26.7236935,23.8946639 26.7756796,24.3069463 26.8799157,24.7004046 C26.983888,25.0942148 27.1512815,25.4394694 27.3821843,25.7366963 C27.6127352,26.0338352 27.9103139,26.2714231 28.2751843,26.4495481 C28.6396148,26.6278491 29.0749435,26.7167796 29.5809944,26.7167796 C30.1314667,26.7167796 30.58905,26.6278491 30.9539204,26.4495481 C31.3183509,26.2714231 31.6124111,26.0338352 31.8356611,25.7366963 C32.0588231,25.4394694 32.2151333,25.0980852 32.3044157,24.7116639 C32.3936981,24.3255065 32.4383833,23.9169185 32.4383833,23.4862519 L32.4383833,18.1607981 C32.4383833,17.7303954 32.3714435,17.318113 32.2374759,16.9243907 C32.1035083,16.5309324 31.9137722,16.1855898 31.6682676,15.888363 C31.422675,15.5912241 31.1213139,15.3537241 30.7641843,15.1755111 C30.4069667,14.9972981 30.0125407,14.9079278 29.5809944,14.9079278 C29.1345824,14.9079278 28.7361981,14.9972981 28.3867213,15.1755111 C28.0368926,15.3537241 27.7394019,15.5912241 27.4938093,15.888363 C27.2483046,16.1855898 27.0585685,16.5309324 26.9246009,16.9243907 C26.7906333,17.318113 26.7236935,17.7303954 26.7236935,18.1607981 L26.7236935,23.4639093 Z M34.3804296,23.7479417 C34.3804296,24.4325574 34.2723231,25.0687056 34.0568139,25.6564741 C33.8408648,26.2445065 33.52455,26.7540759 33.1080454,27.1856222 C32.6911889,27.6174324 32.185138,27.9522194 31.5900685,28.1901593 C30.9946472,28.4280111 30.3249852,28.5472889 29.5809944,28.5472889 C28.8366519,28.5472889 28.1669898,28.4244926 27.5720083,28.178988 C26.976587,27.9333954 26.4743185,27.5912194 26.0651148,27.1521083 C25.6556472,26.7132611 25.3396843,26.2034278 25.1164343,25.6229602 C24.8931843,25.0425806 24.7815593,24.4175157 24.7815593,23.7479417 L24.7815593,17.9215389 C24.7815593,17.2517889 24.9078741,16.626812 25.1610315,16.0464324 C25.413925,15.4660528 25.7561009,14.9602657 26.1879111,14.5283676 C26.6193694,14.0969972 27.1255083,13.7548213 27.7059759,13.5015759 C28.2862676,13.2486824 28.9113324,13.1221037 29.5809944,13.1221037 C30.2357028,13.1221037 30.8569852,13.2486824 31.4450176,13.5015759 C32.0326981,13.7548213 32.5422676,14.0969972 32.9741657,14.5283676 C33.4055361,14.9602657 33.7478,15.4660528 34.0009574,16.0464324 C34.2538509,16.626812 34.3804296,17.2517889 34.3804296,17.9215389 L34.3804296,23.7479417 Z" id="Fill-30" fill="#000100" mask="url(#mask-2)"></path>
                        <path d="M16.5223032,54.7600407 C15.9715671,54.7600407 15.446956,54.6891426 14.9484699,54.5478741 C14.4497199,54.4063417 14.0109606,54.1907444 13.6314884,53.9005546 C13.2519282,53.6103648 12.9467847,53.2457583 12.7161458,52.8067352 C12.485331,52.3679759 12.3701875,51.8506657 12.3701875,51.2552444 C12.3701875,51.0619898 12.4741597,50.9650546 12.6827199,50.9650546 L13.9774468,50.942712 C14.0963727,50.942712 14.1745718,50.9650546 14.2118681,51.0097398 C14.2488125,51.054337 14.2823264,51.1290176 14.3123218,51.2329019 C14.4312477,51.8433648 14.6617986,52.2709528 15.0043264,52.5165454 C15.3465023,52.76205 15.8449884,52.8849343 16.4999606,52.8849343 C17.154669,52.8849343 17.7054051,52.7434898 18.1519051,52.4606889 C18.5983171,52.1781519 18.8215671,51.6870546 18.8215671,50.9873093 C18.8215671,50.719462 18.7580579,50.4331426 18.631831,50.1279991 C18.5051644,49.8231194 18.3377708,49.5664435 18.1295625,49.3578833 L14.1783542,45.4958694 C13.6873449,45.0198139 13.2889606,44.5175454 12.984081,43.9890639 C12.6789375,43.4610222 12.5264977,42.832175 12.5264977,42.1027861 C12.5264977,41.5374481 12.6303819,41.0351796 12.8389421,40.5959806 C13.0472384,40.1572213 13.3262569,39.7812676 13.6760856,39.4687352 C14.0256505,39.1562028 14.4385486,38.9183509 14.915044,38.7544759 C15.3911875,38.5908648 15.8972384,38.5088833 16.4330208,38.5088833 C16.9537616,38.5088833 17.4521597,38.5869944 17.9286551,38.7432167 C18.4047106,38.8994389 18.8288681,39.1304296 19.2010394,39.4352213 C19.5729468,39.7403648 19.8707014,40.1087537 20.0939514,40.540212 C20.3172014,40.9720222 20.4288264,41.4631194 20.4288264,42.0135037 C20.4288264,42.2071102 20.3172014,42.3036935 20.0939514,42.3036935 L18.9777894,42.3036935 C18.9031968,42.3036935 18.8288681,42.274138 18.7546273,42.2144111 C18.6799468,42.155212 18.6279606,42.0881843 18.5983171,42.0135037 C18.4790394,41.5224944 18.2523588,41.1095083 17.9174838,40.7746333 C17.5826968,40.4398463 17.1323264,40.2723648 16.5669005,40.2723648 C16.0012106,40.2723648 15.5139838,40.4138972 15.1047801,40.6965222 C14.6953125,40.9794111 14.4908866,41.4331241 14.4908866,42.0581889 C14.4908866,42.4007167 14.5689977,42.7166796 14.7253079,43.0069574 C14.8815301,43.2971472 15.0712662,43.5614759 15.2945162,43.7994157 L19.4912292,48.0407259 C20.2948588,48.8443556 20.6966736,49.826638 20.6966736,50.9873093 C20.6966736,52.3121194 20.3172014,53.2719713 19.5582569,53.8670407 C18.7992245,54.4620222 17.7870347,54.7600407 16.5223032,54.7600407" id="Fill-31" fill="#000100" mask="url(#mask-2)"></path>
                        <path d="M31.5456296,39.2454412 L31.5456296,40.2499782 C31.5456296,40.4882699 31.4263519,40.6071958 31.188412,40.6071958 L26.6568241,40.6071958 C26.433662,40.6071958 26.322037,40.7188208 26.322037,40.9420708 L26.322037,45.5628532 C26.322037,45.6968208 26.3813241,45.7638486 26.5006019,45.7638486 L29.7151204,45.7638486 C29.9529722,45.7638486 30.0646852,45.8831264 30.0499954,46.1209782 L30.0499954,47.1478579 C30.0499954,47.3710199 29.9383704,47.4827329 29.7151204,47.4827329 L26.6344815,47.4827329 C26.4113194,47.4827329 26.2996944,47.5943579 26.2996944,47.8176079 L26.322037,52.5054181 C26.322037,52.7285801 26.433662,52.8402051 26.6568241,52.8402051 L31.188412,52.8402051 C31.4263519,52.8402051 31.5456296,52.9518301 31.5456296,53.1750801 L31.5456296,54.0455616 C31.5456296,54.2838532 31.4263519,54.4027792 31.188412,54.4027792 L24.8486574,54.4027792 C24.6104537,54.4027792 24.4915278,54.2838532 24.4915278,54.0455616 L24.4915278,39.2454412 C24.4915278,39.0222792 24.6104537,38.9105662 24.8486574,38.9105662 L31.188412,38.9105662 C31.4263519,38.9105662 31.5456296,39.0222792 31.5456296,39.2454412" id="Fill-32" fill="#000100" mask="url(#mask-2)"></path>
                        <path d="M43.8901231,42.5046185 C43.8901231,42.698225 43.7784981,42.7948083 43.5552481,42.7948083 L42.2829519,42.7948083 C42.0596139,42.7948083 41.9480769,42.698225 41.9480769,42.5046185 C41.9480769,42.1474889 41.8810491,41.8349565 41.7469935,41.5671093 C41.6132019,41.2991741 41.4380676,41.0724935 41.2224704,40.886188 C41.0066093,40.7003222 40.7572343,40.5625722 40.4746093,40.4732898 C40.1918083,40.3839194 39.8942296,40.3392343 39.5817852,40.3392343 C39.2839426,40.3392343 38.9935769,40.3951787 38.7111278,40.5067157 C38.4282389,40.6183407 38.1755213,40.7746509 37.9521833,40.9755583 C37.7289333,41.1763778 37.5502806,41.4072806 37.4164009,41.667475 C37.2824333,41.9280213 37.2154935,42.2071278 37.2154935,42.5046185 L37.2154935,50.8980444 C37.2154935,51.195975 37.2824333,51.4711231 37.4164009,51.7240167 C37.5502806,51.977262 37.7289333,52.1966417 37.9521833,52.3825954 C38.1755213,52.568813 38.4282389,52.7139519 38.7111278,52.8179241 C38.9935769,52.9221602 39.2839426,52.9741463 39.5817852,52.9741463 C40.3407296,52.9741463 40.9246278,52.7697204 41.3340074,52.3601648 C41.7432991,51.951137 41.9480769,51.4338269 41.9480769,50.808762 C41.9480769,50.6155954 42.0596139,50.5185722 42.2829519,50.5185722 L43.5552481,50.5185722 C43.7784981,50.5185722 43.8901231,50.6155954 43.8901231,50.808762 C43.8901231,51.3891417 43.7968824,51.9214935 43.6111046,52.40485 C43.4247111,52.8886463 43.1496509,53.3055028 42.7851324,53.6549796 C42.420262,54.0048963 41.9703315,54.2765259 41.4345491,54.4698685 C40.8987667,54.6629472 40.2810028,54.7600583 39.5817852,54.7600583 C39.0013176,54.7600583 38.4544519,54.6741185 37.941012,54.5032065 C37.4276602,54.3322944 36.9773778,54.0790491 36.5905167,53.744262 C36.2033037,53.409387 35.8984241,53.0041417 35.675262,52.5276463 C35.452012,52.0515907 35.340387,51.5085074 35.340387,50.8980444 L35.340387,42.5046185 C35.340387,41.8796417 35.459313,41.3215167 35.6975167,40.8304194 C35.9354565,40.3392343 36.2517713,39.9189472 36.6462852,39.5691185 C37.0403593,39.2197296 37.494512,38.955225 38.0080398,38.7766602 C38.5214796,38.5980954 39.0460028,38.5089009 39.5817852,38.5089009 C40.1620769,38.5089009 40.7125491,38.5907944 41.2336417,38.7544056 C41.7544704,38.9183685 42.2119657,39.1673037 42.6064796,39.5021787 C43.0006417,39.8369657 43.3131741,40.2538222 43.5441648,40.7523083 C43.7747157,41.2510583 43.8901231,41.8349565 43.8901231,42.5046185" id="Fill-33" fill="#000100" mask="url(#mask-2)"></path>
                        <path d="M54.1369111,41.6762801 C54.0035593,41.4090486 53.8256981,41.1750671 53.6035917,40.9744236 C53.3813093,40.7738681 53.1296472,40.6179977 52.8485176,40.5063727 C52.5668602,40.3951875 52.2780778,40.3392431 51.9819944,40.3392431 C51.6854713,40.3392431 51.3966889,40.3951875 51.1154713,40.5063727 C50.8341657,40.6179977 50.5822398,40.7738681 50.3600454,40.9744236 C50.1378509,41.1750671 49.9600778,41.4090486 49.8268139,41.6762801 C49.693462,41.9437755 49.626962,42.2336134 49.626962,42.5454421 L49.626962,51.0356273 C49.626962,51.347456 49.6969806,51.6222523 49.8378972,51.8600162 C49.97855,52.097956 50.1598417,52.3020301 50.3820361,52.4730301 C50.6043185,52.6437662 50.8560685,52.770081 51.13755,52.8517106 C51.4191194,52.9333403 51.700513,52.9741551 51.9819944,52.9741551 C52.2631241,52.9741551 52.5446056,52.9333403 52.826175,52.8517106 C53.1075685,52.770081 53.3594944,52.6472847 53.5816009,52.4841134 C53.8037954,52.3208542 53.9849991,52.1164282 54.1260917,51.8712755 C54.2666565,51.6260347 54.3370269,51.347456 54.3370269,51.0356273 L54.3370269,42.5454421 C54.3370269,42.2336134 54.270175,41.9437755 54.1369111,41.6762801 L54.1369111,41.6762801 Z M56.1676241,51.0321088 C56.1676241,51.6124005 56.0520407,52.1334931 55.8214898,52.5946829 C55.590587,53.0561366 55.281925,53.4467801 54.8950639,53.7666134 C54.5080269,54.0867986 54.0654852,54.3323032 53.5669991,54.5032153 C53.0682491,54.6741273 52.54355,54.7600671 51.9932537,54.7600671 C51.4573833,54.7600671 50.9362907,54.6706088 50.4305037,54.4921319 C49.9244528,54.3135671 49.4779528,54.064456 49.0911796,53.7442708 C48.7038787,53.4244375 48.3915222,53.033794 48.1535824,52.5723403 C47.9153787,52.1111505 47.7964528,51.5977986 47.7964528,51.0321088 L47.7964528,42.5269699 C47.7964528,41.961544 47.9115963,41.4370208 48.142587,40.9532245 C48.37305,40.4697801 48.6855824,40.0455347 49.0800963,39.6808403 C49.4741704,39.3163218 49.9244528,39.0299144 50.4305037,38.8213542 C50.9362907,38.6130579 51.4573833,38.5089097 51.9932537,38.5089097 C52.5585917,38.5089097 53.0905037,38.6130579 53.5892537,38.8213542 C54.0876519,39.0299144 54.5303694,39.3124514 54.9174944,39.669581 C55.3043556,40.0267986 55.6094991,40.450956 55.8326611,40.9420532 C56.0559111,41.4330625 56.1676241,41.961544 56.1676241,42.5269699 L56.1676241,51.0321088 Z" id="Fill-34" fill="#000100" mask="url(#mask-2)"></path>
                        <path d="M63.2437343,44.3351806 C63.1989611,44.2161667 63.1021139,44.1565278 62.9534565,44.1565278 C62.7302065,44.1565278 62.6186694,44.2758056 62.6186694,44.5137454 L62.6186694,54.045588 C62.6186694,54.2838796 62.5070444,54.4028056 62.2837944,54.4028056 L61.2123176,54.4028056 C60.9740259,54.4028056 60.8551,54.2838796 60.8551,54.045588 L60.8551,39.2454676 C60.8551,39.0223056 60.966725,38.9105926 61.189887,38.9105926 L62.1052296,38.9105926 C62.2537991,38.9105926 62.3582111,38.9852731 62.417762,39.1339306 L67.1501694,48.4648657 C67.1949426,48.5541481 67.284225,48.5987454 67.4181046,48.5987454 C67.6412667,48.5987454 67.7529796,48.4872963 67.7529796,48.2639583 L67.7529796,39.2454676 C67.7529796,39.0076157 67.8719056,38.888338 68.1101093,38.888338 L69.1592435,38.888338 C69.3971833,38.888338 69.5164611,39.0076157 69.5164611,39.2454676 L69.5164611,54.0679306 C69.5164611,54.2911806 69.3971833,54.4028056 69.1592435,54.4028056 L68.2665074,54.4028056 C68.1470537,54.4028056 68.0431694,54.3284769 67.953887,54.1796435 L63.2437343,44.3351806 Z" id="Fill-35" fill="#000100" mask="url(#mask-2)"></path>
                        <path d="M76.5926329,52.7509755 L78.0661005,52.7509755 C78.9143273,52.7509755 79.6174153,52.4906931 80.1755403,51.9696005 C80.7335773,51.4488597 81.0126838,50.7568551 81.0126838,49.8935866 L81.0126838,43.776994 C81.0126838,43.3606653 80.9529569,42.9587625 80.834119,42.5716375 C80.7146653,42.1846884 80.5361884,41.846031 80.2982486,41.5558412 C80.0600449,41.2656514 79.7549014,41.0313181 79.382994,40.8527532 C79.0109106,40.6741005 78.5644106,40.5848181 78.0436699,40.5848181 L76.5926329,40.5848181 C76.3694708,40.5848181 76.2577579,40.7040958 76.2577579,40.9420356 L76.2577579,52.3936699 C76.2577579,52.6319616 76.3694708,52.7509755 76.5926329,52.7509755 M74.4273366,54.0456144 L74.4273366,39.245406 C74.4273366,39.022244 74.5461745,38.910619 74.7844662,38.910619 L78.2891745,38.910619 C78.9884801,38.910619 79.6285866,39.0371977 80.2088782,39.2900912 C80.7893458,39.5433366 81.2839616,39.8856005 81.6934292,40.3170588 C82.1025449,40.748781 82.4189477,41.2622208 82.6421097,41.8572903 C82.8655356,42.4527116 82.9769847,43.100031 82.9769847,43.7993366 L82.9769847,49.9605264 C82.9769847,50.6601838 82.8615773,51.2853366 82.6309384,51.8357208 C82.4000356,52.386369 82.0765079,52.8514292 81.6599153,53.2308134 C81.2431468,53.6103736 80.7481792,53.9004755 80.1755403,54.1015588 C79.6024616,54.3024662 78.9735264,54.402744 78.2891745,54.402744 L74.7844662,54.402744 C74.5461745,54.402744 74.4273366,54.283906 74.4273366,54.0456144" id="Fill-36" fill="#000100" mask="url(#mask-2)"></path>
                        <path d="M14.6464315,78.8321699 L16.1198111,78.8321699 C16.968038,78.8321699 17.6712139,78.5718875 18.2292509,78.0507949 C18.7873759,77.5301421 19.0663944,76.8380495 19.0663944,75.974781 L19.0663944,69.8581884 C19.0663944,69.4418597 19.0067556,69.0400449 18.8878296,68.6528319 C18.7685519,68.2659708 18.5898991,67.9273134 18.3520472,67.6370356 C18.1138435,67.3469338 17.808612,67.1126005 17.4367926,66.9339477 C17.0647093,66.7553829 16.6182093,66.6660125 16.0974685,66.6660125 L14.6464315,66.6660125 C14.4231815,66.6660125 14.3115565,66.7853782 14.3115565,67.0233181 L14.3115565,78.4749523 C14.3115565,78.713156 14.4231815,78.8321699 14.6464315,78.8321699 M12.4811352,80.1268088 L12.4811352,65.3266884 C12.4811352,65.1035264 12.5999731,64.9918134 12.8382648,64.9918134 L16.3429731,64.9918134 C17.0423667,64.9918134 17.6823852,65.1184801 18.2627648,65.3713736 C18.8431444,65.624531 19.3377602,65.9667949 19.7472278,66.3982532 C20.1563435,66.8300634 20.4727463,67.3434153 20.6959963,67.9385727 C20.9192463,68.533906 21.0308713,69.1812255 21.0308713,69.880619 L21.0308713,76.0417208 C21.0308713,76.7414662 20.9153759,77.366531 20.684825,77.9169153 C20.4538343,78.4676514 20.1302185,78.9326236 19.7137139,79.3120958 C19.2969454,79.691656 18.8019778,79.9817579 18.2292509,80.1827532 C17.6561722,80.3836606 17.027325,80.4840264 16.3429731,80.4840264 L12.8382648,80.4840264 C12.5999731,80.4840264 12.4811352,80.3651005 12.4811352,80.1268088" id="Fill-37" fill="#000100" mask="url(#mask-2)"></path>
                        <path d="M30.6789306,67.7575097 C30.5456667,67.4902782 30.3678056,67.2562968 30.1456111,67.0556532 C29.9234167,66.8550977 29.6715787,66.6993153 29.390537,66.5876023 C29.1089676,66.4764171 28.8201852,66.4205606 28.5240139,66.4205606 C28.2275787,66.4205606 27.9387963,66.4764171 27.6576667,66.5876023 C27.3761852,66.6993153 27.1243472,66.8550977 26.9021528,67.0556532 C26.6799583,67.2562968 26.5020972,67.4902782 26.3688333,67.7575097 C26.2355694,68.0250051 26.1689815,68.3148431 26.1689815,68.6266718 L26.1689815,77.116769 C26.1689815,77.4285977 26.239088,77.703394 26.3800046,77.9412458 C26.5205694,78.1792736 26.7019491,78.3832597 26.9241435,78.5541718 C27.146338,78.7250838 27.3981759,78.8513106 27.6796574,78.9329403 C27.9611389,79.0145699 28.2426204,79.0552968 28.5240139,79.0552968 C28.8052315,79.0552968 29.086625,79.0145699 29.3681944,78.9329403 C29.649588,78.8513106 29.9015139,78.7285144 30.1236204,78.5653431 C30.3458148,78.4020838 30.5271944,78.1976579 30.6681111,77.9525051 C30.8086759,77.7072644 30.8791343,77.4285977 30.8791343,77.116769 L30.8791343,68.6266718 C30.8791343,68.3148431 30.8121944,68.0250051 30.6789306,67.7575097 L30.6789306,67.7575097 Z M32.7096435,77.1132505 C32.7096435,77.6936301 32.5941481,78.2148106 32.3635972,78.6759125 C32.1326944,79.1373662 31.8240324,79.5280097 31.4372593,79.8478431 C31.0500463,80.1681162 30.6074167,80.4135329 30.1090185,80.5844449 C29.6102685,80.7554449 29.0856574,80.8412088 28.5352731,80.8412088 C27.9994907,80.8412088 27.4783981,80.7519264 26.9726111,80.5732736 C26.4664722,80.3947968 26.0200602,80.1456856 25.6331991,79.8254125 C25.2460741,79.5057551 24.9335417,79.1149356 24.6956019,78.6534819 C24.4573981,78.1923801 24.3384722,77.6790282 24.3384722,77.1132505 L24.3384722,68.6082875 C24.3384722,68.0427736 24.4536157,67.5182505 24.6845185,67.0343662 C24.9150694,66.5510097 25.2276019,66.1267644 25.6221157,65.7619819 C26.0161898,65.3975514 26.4664722,65.111144 26.9726111,64.9025838 C27.4783981,64.6943755 27.9994907,64.5900514 28.5352731,64.5900514 C29.1006111,64.5900514 29.6325231,64.6943755 30.1312731,64.9025838 C30.6296713,65.111144 31.0723889,65.393681 31.4595139,65.7508106 C31.846375,66.1080282 32.1515185,66.5320977 32.3747685,67.0232829 C32.5980185,67.5142921 32.7096435,68.0427736 32.7096435,68.6082875 L32.7096435,77.1132505 Z" id="Fill-38" fill="#000100" mask="url(#mask-2)"></path>
                        <path d="M44.7427833,68.5858569 C44.7427833,68.7794634 44.6312463,68.8761347 44.4079083,68.8761347 L43.135612,68.8761347 C42.9122741,68.8761347 42.800737,68.7794634 42.800737,68.5858569 C42.800737,68.2287273 42.7337093,67.9161949 42.5997417,67.6483477 C42.465862,67.3804125 42.2908157,67.1537319 42.0751306,66.9674264 C41.8592694,66.7814727 41.6099824,66.6438106 41.3272694,66.5545282 C41.0445565,66.4651579 40.7469778,66.4205606 40.4345333,66.4205606 C40.1365148,66.4205606 39.846325,66.4764171 39.563788,66.5879542 C39.280987,66.6995792 39.0280935,66.8558894 38.8048435,67.0567968 C38.5816815,67.2576162 38.4030287,67.488519 38.2691491,67.7487134 C38.1350935,68.0092597 38.0682417,68.2883662 38.0682417,68.5858569 L38.0682417,76.9792829 C38.0682417,77.2773014 38.1350935,77.5524495 38.2691491,77.8053431 C38.4030287,78.0584125 38.5816815,78.2778801 38.8048435,78.4638338 C39.0280935,78.6500514 39.280987,78.7951903 39.563788,78.8990745 C39.846325,79.0034866 40.1365148,79.0552968 40.4345333,79.0552968 C41.1934778,79.0552968 41.7773759,78.8509588 42.1867556,78.4414912 C42.5959593,78.0324634 42.800737,77.5150653 42.800737,76.8900005 C42.800737,76.6968338 42.9122741,76.5997227 43.135612,76.5997227 L44.4079083,76.5997227 C44.6312463,76.5997227 44.7427833,76.6968338 44.7427833,76.8900005 C44.7427833,77.4704681 44.6496306,78.0027319 44.4638528,78.4860884 C44.2774593,78.9699727 44.0023991,79.3867412 43.6377926,79.7362181 C43.2730102,80.0861347 42.8229917,80.3577644 42.2872972,80.551019 C41.7515148,80.7442736 41.1337509,80.8412088 40.4345333,80.8412088 C39.8540657,80.8412088 39.307112,80.7554449 38.7936722,80.5844449 C38.2803204,80.4135329 37.82995,80.1602875 37.4431769,79.8254125 C37.0559639,79.4906255 36.7511722,79.0853801 36.5279222,78.6088847 C36.3046722,78.1328292 36.1930472,77.5896579 36.1930472,76.9792829 L36.1930472,68.5858569 C36.1930472,67.9608801 36.3120611,67.4027551 36.5501769,66.9116579 C36.7881167,66.4205606 37.1045194,66.0001856 37.4990333,65.6504449 C37.8930194,65.3008801 38.3472602,65.0364634 38.8607,64.8578986 C39.3740519,64.6794218 39.898663,64.5900514 40.4345333,64.5900514 C41.014825,64.5900514 41.5652093,64.6720329 42.0863898,64.835644 C42.6071306,64.999519 43.0647139,65.2485421 43.4592278,65.5833292 C43.8533898,65.9182042 44.1658343,66.3350606 44.396737,66.8334588 C44.627288,67.3322968 44.7427833,67.9161949 44.7427833,68.5858569" id="Fill-39" fill="#000100" mask="url(#mask-2)"></path>
                        <path d="M52.0775134,80.8412264 C51.5266894,80.8412264 51.0021662,80.7704162 50.5037681,80.6290597 C50.0049301,80.4875273 49.5660829,80.2719301 49.1867866,79.9817403 C48.8071384,79.6916384 48.5020829,79.3270319 48.271444,78.8879208 C48.0405412,78.4492495 47.9255736,77.9319394 47.9255736,77.3365181 C47.9255736,77.1432634 48.0293699,77.0462403 48.2380181,77.0462403 L49.5327449,77.0239856 C49.6517588,77.0239856 49.7298699,77.0462403 49.7671662,77.0909255 C49.8040227,77.1356106 49.8375366,77.2102912 49.8676199,77.3140875 C49.9865458,77.9245505 50.2170968,78.3521384 50.5595366,78.597731 C50.9018005,78.8433236 51.4001986,78.9661199 52.0551708,78.9661199 C52.7097912,78.9661199 53.2607032,78.8247634 53.7071153,78.5419625 C54.1536153,78.2593375 54.3769532,77.7682403 54.3769532,77.0684949 C54.3769532,76.8007356 54.313356,76.5144162 54.1870412,76.2091847 C54.0604625,75.9043931 53.893069,75.6476292 53.6847727,75.439069 L49.7335644,71.5771431 C49.2425551,71.1010875 48.8442588,70.598819 48.5392912,70.0703375 C48.2342356,69.5422958 48.0817079,68.9133606 48.0817079,68.1839718 C48.0817079,67.6187218 48.1857681,67.1164532 48.3941523,66.6772542 C48.6023606,66.2384069 48.8814671,65.8624532 49.2312958,65.5500088 C49.5808606,65.2373884 49.9937588,64.9995366 50.4703421,64.8356616 C50.9463977,64.6720505 51.4526245,64.590069 51.9881431,64.590069 C52.5089718,64.590069 53.0073699,64.6682681 53.4838653,64.8244023 C53.9599208,64.9806245 54.3840782,65.2116153 54.7562495,65.5164949 C55.1282449,65.8216384 55.4259116,66.1899394 55.6492495,66.6214856 C55.8724995,67.0532958 55.9841245,67.5443051 55.9841245,68.0947773 C55.9841245,68.2883838 55.8724995,68.3849671 55.6492495,68.3849671 L54.5330875,68.3849671 C54.4584949,68.3849671 54.3840782,68.3554116 54.3098375,68.2956847 C54.2351569,68.2363977 54.1832588,68.1693699 54.1536153,68.0947773 C54.0342495,67.6037681 53.807569,67.190694 53.472694,66.8559069 C53.1379069,66.5210319 52.6876245,66.3536384 52.1222866,66.3536384 C51.5564208,66.3536384 51.069194,66.4951708 50.6599903,66.7777079 C50.2505227,67.0605968 50.0460968,67.5143097 50.0460968,68.1393745 C50.0460968,68.4819903 50.1242958,68.7979532 50.2805181,69.0881431 C50.4369162,69.3784208 50.6265644,69.6426616 50.8499023,69.8806894 L55.0466153,74.1219116 C55.850069,74.9255412 56.2518838,75.9078236 56.2518838,77.0684949 C56.2518838,78.3933051 55.8724995,79.3532449 55.1134671,79.9483144 C54.3545227,80.5432958 53.3422449,80.8412264 52.0775134,80.8412264" id="Fill-40" fill="#000100" mask="url(#mask-2)"></path>
                        <polygon id="Fill-41" fill="#000100" mask="url(#mask-2)" points="9.93981481 60.7824074 84.9722222 60.7824074 84.9722222 58.8472222 9.93981481 58.8472222"></polygon>
                        <polygon id="Fill-42" fill="#000100" mask="url(#mask-2)" points="9.93981481 35.1851852 84.9722222 35.1851852 84.9722222 33.25 9.93981481 33.25"></polygon>
                    </g>
                </g>
            </g>
        </g>
    </g>
</svg>